<svg id="SvgjsSvg1122" width="1184.265625" height="232" xmlns="http://www.w3.org/2000/svg" version="1.1" xmlns:xlink="http://www.w3.org/1999/xlink" xmlns:svgjs="http://svgjs.com/svgjs"><defs id="SvgjsDefs1123"><marker id="SvgjsMarker1150" markerWidth="16" markerHeight="12" refX="16" refY="6" viewBox="0 0 16 12" orient="auto" markerUnits="userSpaceOnUse" stroke-dasharray="0,0"><path id="SvgjsPath1151" d="M0,2 L14,6 L0,11 L0,2" fill="#323232" stroke="#323232" stroke-width="2"></path></marker><marker id="SvgjsMarker1160" markerWidth="16" markerHeight="12" refX="16" refY="6" viewBox="0 0 16 12" orient="auto" markerUnits="userSpaceOnUse" stroke-dasharray="0,0"><path id="SvgjsPath1161" d="M0,2 L14,6 L0,11 L0,2" fill="#323232" stroke="#323232" stroke-width="2"></path></marker><marker id="SvgjsMarker1170" markerWidth="16" markerHeight="12" refX="16" refY="6" viewBox="0 0 16 12" orient="auto" markerUnits="userSpaceOnUse" stroke-dasharray="0,0"><path id="SvgjsPath1171" d="M0,2 L14,6 L0,11 L0,2" fill="#323232" stroke="#323232" stroke-width="2"></path></marker><marker id="SvgjsMarker1192" markerWidth="16" markerHeight="12" refX="16" refY="6" viewBox="0 0 16 12" orient="auto" markerUnits="userSpaceOnUse" stroke-dasharray="0,0"><path id="SvgjsPath1193" d="M0,2 L14,6 L0,11 L0,2" fill="#323232" stroke="#323232" stroke-width="2"></path></marker><marker id="SvgjsMarker1196" markerWidth="16" markerHeight="12" refX="16" refY="6" viewBox="0 0 16 12" orient="auto" markerUnits="userSpaceOnUse" stroke-dasharray="0,0"><path id="SvgjsPath1197" d="M0,2 L14,6 L0,11 L0,2" fill="#323232" stroke="#323232" stroke-width="2"></path></marker><marker id="SvgjsMarker1206" markerWidth="16" markerHeight="12" refX="16" refY="6" viewBox="0 0 16 12" orient="auto" markerUnits="userSpaceOnUse" stroke-dasharray="0,0"><path id="SvgjsPath1207" d="M0,2 L14,6 L0,11 L0,2" fill="#323232" stroke="#323232" stroke-width="2"></path></marker><marker id="SvgjsMarker1216" markerWidth="16" markerHeight="12" refX="16" refY="6" viewBox="0 0 16 12" orient="auto" markerUnits="userSpaceOnUse" stroke-dasharray="0,0"><path id="SvgjsPath1217" d="M0,2 L14,6 L0,11 L0,2" fill="#323232" stroke="#323232" stroke-width="2"></path></marker><marker id="SvgjsMarker1220" markerWidth="16" markerHeight="12" refX="16" refY="6" viewBox="0 0 16 12" orient="auto" markerUnits="userSpaceOnUse" stroke-dasharray="0,0"><path id="SvgjsPath1221" d="M0,2 L14,6 L0,11 L0,2" fill="#323232" stroke="#323232" stroke-width="2"></path></marker><marker id="SvgjsMarker1236" markerWidth="16" markerHeight="12" refX="16" refY="6" viewBox="0 0 16 12" orient="auto" markerUnits="userSpaceOnUse" stroke-dasharray="0,0"><path id="SvgjsPath1237" d="M0,2 L14,6 L0,11 L0,2" fill="#323232" stroke="#323232" stroke-width="2"></path></marker></defs><g id="SvgjsG1124" transform="translate(978.0014204545453,162)"><path id="SvgjsPath1125" d="M 0 4Q 0 0 4 0L 126 0Q 130 0 130 4L 130 41Q 130 45 126 45L 4 45Q 0 45 0 41Z" stroke="rgba(50,50,50,1)" stroke-width="2" fill-opacity="1" fill="#ffffff"></path><g id="SvgjsG1126"><text id="SvgjsText1127" font-family="微软雅黑" text-anchor="middle" font-size="15px" width="110px" fill="#323232" font-weight="700" align="middle" anchor="middle" family="微软雅黑" size="15px" weight="700" font-style="" opacity="1" y="10.75" transform="rotate(0)"><tspan id="SvgjsTspan1128" dy="18" x="65"><tspan id="SvgjsTspan1129" style="text-decoration:;">触发App Skill</tspan></tspan></text></g></g><g id="SvgjsG1130" transform="translate(862.0014204545453,95.5)"><path id="SvgjsPath1131" d="M 0 0L 70 0L 70 40L 0 40Z" stroke="none" fill="none"></path><g id="SvgjsG1132"><text id="SvgjsText1133" font-family="微软雅黑" text-anchor="middle" font-size="15px" width="70px" fill="#323232" font-weight="700" align="middle" anchor="middle" family="微软雅黑" size="15px" weight="700" font-style="" opacity="1" y="8.25" transform="rotate(0)"><tspan id="SvgjsTspan1134" dy="18" x="35"><tspan id="SvgjsTspan1135" style="text-decoration:;">文本</tspan></tspan></text></g></g><g id="SvgjsG1136" transform="translate(25.00142045454544,95.5)"><path id="SvgjsPath1137" d="M 0 0L 56 0L 56 40L 0 40Z" stroke="none" fill="none"></path><g id="SvgjsG1138"><text id="SvgjsText1139" font-family="微软雅黑" text-anchor="middle" font-size="15px" width="56px" fill="#323232" font-weight="700" align="middle" anchor="middle" family="微软雅黑" size="15px" weight="700" font-style="" opacity="1" y="8.25" transform="rotate(0)"><tspan id="SvgjsTspan1140" dy="18" x="28"><tspan id="SvgjsTspan1141" style="text-decoration:;">声音</tspan></tspan></text></g></g><g id="SvgjsG1142" transform="translate(112.00142045454544,93)"><path id="SvgjsPath1143" d="M 0 4Q 0 0 4 0L 126 0Q 130 0 130 4L 130 41Q 130 45 126 45L 4 45Q 0 45 0 41Z" stroke="rgba(50,50,50,1)" stroke-width="2" fill-opacity="1" fill="#ffffff"></path><g id="SvgjsG1144"><text id="SvgjsText1145" font-family="微软雅黑" text-anchor="middle" font-size="15px" width="110px" fill="#323232" font-weight="700" align="middle" anchor="middle" family="微软雅黑" size="15px" weight="700" font-style="" opacity="1" y="10.75" transform="rotate(0)"><tspan id="SvgjsTspan1146" dy="18" x="65"><tspan id="SvgjsTspan1147" style="text-decoration:;">麦克风录制</tspan></tspan></text></g></g><g id="SvgjsG1148"><path id="SvgjsPath1149" d="M81.00142045454544 115.5L96.50142045454544 115.5L96.50142045454544 115.5L112.00142045454544 115.5" stroke="#323232" stroke-width="2" fill="none" marker-end="url(#SvgjsMarker1150)"></path></g><g id="SvgjsG1152" transform="translate(272.0014204545456,93)"><path id="SvgjsPath1153" d="M 0 4Q 0 0 4 0L 126 0Q 130 0 130 4L 130 41Q 130 45 126 45L 4 45Q 0 45 0 41Z" stroke="rgba(50,50,50,1)" stroke-width="2" fill-opacity="1" fill="#ffffff"></path><g id="SvgjsG1154"><text id="SvgjsText1155" font-family="微软雅黑" text-anchor="middle" font-size="15px" width="110px" fill="#323232" font-weight="700" align="middle" anchor="middle" family="微软雅黑" size="15px" weight="700" font-style="" opacity="1" y="10.75" transform="rotate(0)"><tspan id="SvgjsTspan1156" dy="18" x="65"><tspan id="SvgjsTspan1157" style="text-decoration:;">降噪</tspan></tspan></text></g></g><g id="SvgjsG1158"><path id="SvgjsPath1159" d="M242.00142045454555 115.5L257.0014204545456 115.5L257.0014204545456 115.5L272.0014204545456 115.5" stroke="#323232" stroke-width="2" fill="none" marker-end="url(#SvgjsMarker1160)"></path></g><g id="SvgjsG1162" transform="translate(700.0014204545453,93)"><path id="SvgjsPath1163" d="M 0 4Q 0 0 4 0L 126 0Q 130 0 130 4L 130 41Q 130 45 126 45L 4 45Q 0 45 0 41Z" stroke="rgba(50,50,50,1)" stroke-width="2" fill-opacity="1" fill="#ffffff"></path><g id="SvgjsG1164"><text id="SvgjsText1165" font-family="微软雅黑" text-anchor="middle" font-size="15px" width="110px" fill="#323232" font-weight="700" align="middle" anchor="middle" family="微软雅黑" size="15px" weight="700" font-style="" opacity="1" y="10.75" transform="rotate(0)"><tspan id="SvgjsTspan1166" dy="18" x="65"><tspan id="SvgjsTspan1167" style="text-decoration:;">语音识别</tspan></tspan></text></g></g><g id="SvgjsG1168"><path id="SvgjsPath1169" d="M402.0014204545456 115.5L417.0014204545456 115.5L417.0014204545456 115.5L432.0014204545456 115.5" stroke="#323232" stroke-width="2" fill="none" marker-end="url(#SvgjsMarker1170)"></path></g><g id="SvgjsG1172" transform="translate(162.00142045454544,147)"><path id="SvgjsPath1173" d="M 0 15C 0 -5 30 -5 30 15C 30 35 0 35 0 15Z" stroke="rgba(50,50,50,1)" stroke-width="2" fill-opacity="1" fill="#ffffff"></path><g id="SvgjsG1174"><text id="SvgjsText1175" font-family="微软雅黑" text-anchor="middle" font-size="15px" width="10px" fill="#323232" font-weight="700" align="middle" anchor="middle" family="微软雅黑" size="15px" weight="700" font-style="" opacity="1" y="3.25" transform="rotate(0)"><tspan id="SvgjsTspan1176" dy="18" x="15"><tspan id="SvgjsTspan1177" style="text-decoration:;">3</tspan></tspan></text></g></g><g id="SvgjsG1178" transform="translate(322.0014204545456,147)"><path id="SvgjsPath1179" d="M 0 15C 0 -5 30 -5 30 15C 30 35 0 35 0 15Z" stroke="rgba(50,50,50,1)" stroke-width="2" fill-opacity="1" fill="#ffffff"></path><g id="SvgjsG1180"><text id="SvgjsText1181" font-family="微软雅黑" text-anchor="middle" font-size="15px" width="10px" fill="#323232" font-weight="700" align="middle" anchor="middle" family="微软雅黑" size="15px" weight="700" font-style="" opacity="1" y="3.25" transform="rotate(0)"><tspan id="SvgjsTspan1182" dy="18" x="15"><tspan id="SvgjsTspan1183" style="text-decoration:;">4</tspan></tspan></text></g></g><g id="SvgjsG1184" transform="translate(432.0014204545456,95.5)"><path id="SvgjsPath1185" d="M 0 0L 70 0L 70 40L 0 40Z" stroke="none" fill="none"></path><g id="SvgjsG1186"><text id="SvgjsText1187" font-family="微软雅黑" text-anchor="middle" font-size="15px" width="70px" fill="#323232" font-weight="700" align="middle" anchor="middle" family="微软雅黑" size="15px" weight="700" font-style="" opacity="1" y="8.25" transform="rotate(0)"><tspan id="SvgjsTspan1188" dy="18" x="35"><tspan id="SvgjsTspan1189" style="text-decoration:;">语音</tspan></tspan></text></g></g><g id="SvgjsG1190"><path id="SvgjsPath1191" d="M502.00142045454527 115.5L516.5014204545453 115.5L516.5014204545453 115.5L531.0014204545453 115.5" stroke="#323232" stroke-width="2" fill="none" marker-end="url(#SvgjsMarker1192)"></path></g><g id="SvgjsG1194"><path id="SvgjsPath1195" d="M830.0014204545453 115.5L846.0014204545453 115.5L846.0014204545453 115.5L862.0014204545453 115.5" stroke="#323232" stroke-width="2" fill="none" marker-end="url(#SvgjsMarker1196)"></path></g><g id="SvgjsG1198" transform="translate(978.0014204545453,25)"><path id="SvgjsPath1199" d="M 0 4Q 0 0 4 0L 126 0Q 130 0 130 4L 130 41Q 130 45 126 45L 4 45Q 0 45 0 41Z" stroke="rgba(50,50,50,1)" stroke-width="2" fill-opacity="1" fill="#ffffff"></path><g id="SvgjsG1200"><text id="SvgjsText1201" font-family="微软雅黑" text-anchor="middle" font-size="15px" width="110px" fill="#323232" font-weight="700" align="middle" anchor="middle" family="微软雅黑" size="15px" weight="700" font-style="" opacity="1" y="10.75" transform="rotate(0)"><tspan id="SvgjsTspan1202" dy="18" x="65"><tspan id="SvgjsTspan1203" style="text-decoration:;">返回结果</tspan></tspan></text></g></g><g id="SvgjsG1204"><path id="SvgjsPath1205" d="M932.0014204545453 115.5L955.0014204545453 115.5L955.0014204545453 47.5L978.0014204545453 47.5" stroke="#323232" stroke-width="2" fill="none" marker-end="url(#SvgjsMarker1206)"></path></g><g id="SvgjsG1208" transform="translate(978.0014204545453,93)"><path id="SvgjsPath1209" d="M 0 4Q 0 0 4 0L 126 0Q 130 0 130 4L 130 41Q 130 45 126 45L 4 45Q 0 45 0 41Z" stroke="rgba(50,50,50,1)" stroke-width="2" fill-opacity="1" fill="#ffffff"></path><g id="SvgjsG1210"><text id="SvgjsText1211" font-family="微软雅黑" text-anchor="middle" font-size="15px" width="110px" fill="#323232" font-weight="700" align="middle" anchor="middle" family="微软雅黑" size="15px" weight="700" font-style="" opacity="1" y="10.75" transform="rotate(0)"><tspan id="SvgjsTspan1212" dy="18" x="65"><tspan id="SvgjsTspan1213" style="text-decoration:;">执行指令</tspan></tspan></text></g></g><g id="SvgjsG1214"><path id="SvgjsPath1215" d="M932.0014204545453 115.5L955.0014204545453 115.5L955.0014204545453 115.5L978.0014204545453 115.5" stroke="#323232" stroke-width="2" fill="none" marker-end="url(#SvgjsMarker1216)"></path></g><g id="SvgjsG1218"><path id="SvgjsPath1219" d="M932.0014204545453 115.5L955.0014204545453 115.5L955.0014204545453 184.5L978.0014204545453 184.5" stroke="#323232" stroke-width="2" fill="none" marker-end="url(#SvgjsMarker1220)"></path></g><g id="SvgjsG1222" transform="translate(1129.274147727273,169.27272727272702)"><path id="SvgjsPath1223" d="M 0 15C 0 -5 30 -5 30 15C 30 35 0 35 0 15Z" stroke="rgba(50,50,50,1)" stroke-width="2" fill-opacity="1" fill="#ffffff"></path><g id="SvgjsG1224"><text id="SvgjsText1225" font-family="微软雅黑" text-anchor="middle" font-size="15px" width="10px" fill="#323232" font-weight="700" align="middle" anchor="middle" family="微软雅黑" size="15px" weight="700" font-style="" opacity="1" y="3.25" transform="rotate(0)"><tspan id="SvgjsTspan1226" dy="18" x="15"><tspan id="SvgjsTspan1227" style="text-decoration:;">5</tspan></tspan></text></g></g><g id="SvgjsG1228" transform="translate(531.0014204545453,93)"><path id="SvgjsPath1229" d="M 0 4Q 0 0 4 0L 126 0Q 130 0 130 4L 130 41Q 130 45 126 45L 4 45Q 0 45 0 41Z" stroke="rgba(50,50,50,1)" stroke-width="2" fill-opacity="1" fill="#ffffff"></path><g id="SvgjsG1230"><text id="SvgjsText1231" font-family="微软雅黑" text-anchor="middle" font-size="15px" width="110px" fill="#323232" font-weight="700" align="middle" anchor="middle" family="微软雅黑" size="15px" weight="700" font-style="" opacity="1" y="10.75" transform="rotate(0)"><tspan id="SvgjsTspan1232" dy="18" x="65"><tspan id="SvgjsTspan1233" style="text-decoration:;">特征提取</tspan></tspan></text></g></g><g id="SvgjsG1234"><path id="SvgjsPath1235" d="M661.0014204545453 115.5L680.5014204545453 115.5L680.5014204545453 115.5L700.0014204545453 115.5" stroke="#323232" stroke-width="2" fill="none" marker-end="url(#SvgjsMarker1236)"></path></g></svg>