<svg id="SvgjsSvg1006" width="649" height="137" xmlns="http://www.w3.org/2000/svg" version="1.1" xmlns:xlink="http://www.w3.org/1999/xlink" xmlns:svgjs="http://svgjs.com/svgjs"><defs id="SvgjsDefs1007"><marker id="SvgjsMarker1028" markerWidth="16" markerHeight="12" refX="16" refY="6" viewBox="0 0 16 12" orient="auto" markerUnits="userSpaceOnUse" stroke-dasharray="0,0"><path id="SvgjsPath1029" d="M0,2 L14,6 L0,11 L0,2" fill="#323232" stroke="#323232" stroke-width="2"></path></marker><marker id="SvgjsMarker1032" markerWidth="16" markerHeight="12" refX="16" refY="6" viewBox="0 0 16 12" orient="auto" markerUnits="userSpaceOnUse" stroke-dasharray="0,0"><path id="SvgjsPath1033" d="M0,2 L14,6 L0,11 L0,2" fill="#323232" stroke="#323232" stroke-width="2"></path></marker><marker id="SvgjsMarker1048" markerWidth="16" markerHeight="12" refX="16" refY="6" viewBox="0 0 16 12" orient="auto" markerUnits="userSpaceOnUse" stroke-dasharray="0,0"><path id="SvgjsPath1049" d="M0,2 L14,6 L0,11 L0,2" fill="#323232" stroke="#323232" stroke-width="2"></path></marker></defs><g id="SvgjsG1008" transform="translate(350,25)"><path id="SvgjsPath1009" d="M 0 4Q 0 0 4 0L 126 0Q 130 0 130 4L 130 41Q 130 45 126 45L 4 45Q 0 45 0 41Z" stroke="rgba(50,50,50,1)" stroke-width="2" fill-opacity="1" fill="#ffffff"></path><g id="SvgjsG1010"><text id="SvgjsText1011" font-family="微软雅黑" text-anchor="middle" font-size="15px" width="110px" fill="#323232" font-weight="700" align="middle" anchor="middle" family="微软雅黑" size="15px" weight="700" font-style="" opacity="1" y="10.75" transform="rotate(0)"><tspan id="SvgjsTspan1012" dy="18" x="65"><tspan id="SvgjsTspan1013" style="text-decoration:;">语音识别</tspan></tspan></text></g></g><g id="SvgjsG1014" transform="translate(25,27.5)"><path id="SvgjsPath1015" d="M 0 0L 56 0L 56 40L 0 40Z" stroke="none" fill="none"></path><g id="SvgjsG1016"><text id="SvgjsText1017" font-family="微软雅黑" text-anchor="middle" font-size="15px" width="56px" fill="#323232" font-weight="700" align="middle" anchor="middle" family="微软雅黑" size="15px" weight="700" font-style="" opacity="1" y="8.25" transform="rotate(0)"><tspan id="SvgjsTspan1018" dy="18" x="28"><tspan id="SvgjsTspan1019" style="text-decoration:;">语音</tspan></tspan></text></g></g><g id="SvgjsG1020" transform="translate(554,27.5)"><path id="SvgjsPath1021" d="M 0 0L 70 0L 70 40L 0 40Z" stroke="none" fill="none"></path><g id="SvgjsG1022"><text id="SvgjsText1023" font-family="微软雅黑" text-anchor="middle" font-size="15px" width="70px" fill="#323232" font-weight="700" align="middle" anchor="middle" family="微软雅黑" size="15px" weight="700" font-style="" opacity="1" y="8.25" transform="rotate(0)"><tspan id="SvgjsTspan1024" dy="18" x="35"><tspan id="SvgjsTspan1025" style="text-decoration:;">文本</tspan></tspan></text></g></g><g id="SvgjsG1026"><path id="SvgjsPath1027" d="M81 47.5L117 47.5L117 47.5L153 47.5" stroke="#323232" stroke-width="2" fill="none" marker-end="url(#SvgjsMarker1028)"></path></g><g id="SvgjsG1030"><path id="SvgjsPath1031" d="M480 47.5L517 47.5L517 47.5L554 47.5" stroke="#323232" stroke-width="2" fill="none" marker-end="url(#SvgjsMarker1032)"></path></g><g id="SvgjsG1034" transform="translate(203,82)"><path id="SvgjsPath1035" d="M 0 15C 0 -5 30 -5 30 15C 30 35 0 35 0 15Z" stroke="rgba(50,50,50,1)" stroke-width="2" fill-opacity="1" fill="#ffffff"></path><g id="SvgjsG1036"><text id="SvgjsText1037" font-family="微软雅黑" text-anchor="middle" font-size="15px" width="10px" fill="#323232" font-weight="700" align="middle" anchor="middle" family="微软雅黑" size="15px" weight="700" font-style="" opacity="1" y="3.25" transform="rotate(0)"><tspan id="SvgjsTspan1038" dy="18" x="15"><tspan id="SvgjsTspan1039" style="text-decoration:;">1</tspan></tspan></text></g></g><g id="SvgjsG1040" transform="translate(153,25)"><path id="SvgjsPath1041" d="M 0 4Q 0 0 4 0L 126 0Q 130 0 130 4L 130 41Q 130 45 126 45L 4 45Q 0 45 0 41Z" stroke="rgba(50,50,50,1)" stroke-width="2" fill-opacity="1" fill="#ffffff"></path><g id="SvgjsG1042"><text id="SvgjsText1043" font-family="微软雅黑" text-anchor="middle" font-size="15px" width="110px" fill="#323232" font-weight="700" align="middle" anchor="middle" family="微软雅黑" size="15px" weight="700" font-style="" opacity="1" y="10.75" transform="rotate(0)"><tspan id="SvgjsTspan1044" dy="18" x="65"><tspan id="SvgjsTspan1045" style="text-decoration:;">特征提取</tspan></tspan></text></g></g><g id="SvgjsG1046"><path id="SvgjsPath1047" d="M283 47.5L316.5 47.5L316.5 47.5L350 47.5" stroke="#323232" stroke-width="2" fill="none" marker-end="url(#SvgjsMarker1048)"></path></g><g id="SvgjsG1050" transform="translate(400,82)"><path id="SvgjsPath1051" d="M 0 15C 0 -5 30 -5 30 15C 30 35 0 35 0 15Z" stroke="rgba(50,50,50,1)" stroke-width="2" fill-opacity="1" fill="#ffffff"></path><g id="SvgjsG1052"><text id="SvgjsText1053" font-family="微软雅黑" text-anchor="middle" font-size="15px" width="10px" fill="#323232" font-weight="700" align="middle" anchor="middle" family="微软雅黑" size="15px" weight="700" font-style="" opacity="1" y="3.25" transform="rotate(0)"><tspan id="SvgjsTspan1054" dy="18" x="15"><tspan id="SvgjsTspan1055" style="text-decoration:;">2</tspan></tspan></text></g></g></svg>